<svg width="101" height="100" viewBox="0 0 101 100" fill="none" xmlns="http://www.w3.org/2000/svg">
    <path d="M100.5 50C100.5 77.6142 78.1142 100 50.5 100C22.8858 100 0.5 77.6142 0.5 50C0.5 22.3858 22.8858 0 50.5 0C78.1142 0 100.5 22.3858 100.5 50ZM5.17517 50C5.17517 75.0322 25.4678 95.3248 50.5 95.3248C75.5322 95.3248 95.8248 75.0322 95.8248 50C95.8248 24.9678 75.5322 4.67517 50.5 4.67517C25.4678 4.67517 5.17517 24.9678 5.17517 50Z" fill="#CBA64C"/>
    <path d="M74.4884 33.4899L43.4913 64.487L29.4017 50.3974" stroke="#CBA64C" stroke-width="5.78035" stroke-linecap="round" stroke-linejoin="round"/>
</svg>
