

<svg width="21" height="23" viewBox="0 0 21 23" fill="none" xmlns="http://www.w3.org/2000/svg">
    <path fill-rule="evenodd" clip-rule="evenodd" d="M0.937578 12.5125C0.515768 12.9345 0.278809 13.5067 0.278809 14.1033C0.278809 14.6999 0.515768 15.2721 0.937578 15.694L5.27783 20.0343H1.59683C1.29846 20.0343 1.01231 20.1528 0.801333 20.3638C0.590355 20.5748 0.471828 20.8609 0.471828 21.1593C0.471828 21.4576 0.590355 21.7438 0.801333 21.9548C1.01231 22.1658 1.29846 22.2843 1.59683 22.2843H19.5968C19.8952 22.2843 20.1813 22.1658 20.3923 21.9548C20.6033 21.7438 20.7218 21.4576 20.7218 21.1593C20.7218 20.8609 20.6033 20.5748 20.3923 20.3638C20.1813 20.1528 19.8952 20.0343 19.5968 20.0343H9.32558L20.03 9.32991C20.4518 8.90797 20.6887 8.33577 20.6887 7.73915C20.6887 7.14254 20.4518 6.57034 20.03 6.14841L15.2566 1.37503C15.0476 1.166 14.7996 1.00019 14.5265 0.887057C14.2535 0.773926 13.9608 0.715698 13.6653 0.715698C13.3697 0.715698 13.0771 0.773926 12.804 0.887057C12.531 1.00019 12.2829 1.166 12.074 1.37503L0.937578 12.5125ZM5.80433 10.8273L2.52833 14.1033L7.3017 18.8755L10.5766 15.6007L5.80433 10.8273ZM7.39508 9.23653L12.1685 14.0099L18.4381 7.73915L13.6658 2.96578L7.39508 9.23653Z" fill="#CBA64C"/>
</svg>
