<svg width="32" height="32" viewBox="0 0 32 32" fill="none" xmlns="http://www.w3.org/2000/svg">
    <circle cx="16" cy="16" r="16" fill="#7C8790"/>
    <path d="M9.33325 24.3333V12.6667H11.8333V11C11.8333 9.84722 12.2396 8.86472 13.0524 8.0525C13.8652 7.24027 14.8477 6.83388 15.9999 6.83333C17.1521 6.83277 18.1349 7.23916 18.9483 8.0525C19.7616 8.86583 20.1677 9.84833 20.1666 11V12.6667H22.6666V24.3333H9.33325ZM10.9999 22.6667H20.9999V14.3333H10.9999V22.6667ZM15.9999 20.1667C16.4583 20.1667 16.8508 20.0036 17.1774 19.6775C17.5041 19.3514 17.6671 18.9589 17.6666 18.5C17.666 18.0411 17.503 17.6489 17.1774 17.3233C16.8519 16.9978 16.4594 16.8344 15.9999 16.8333C15.5405 16.8322 15.1483 16.9956 14.8233 17.3233C14.4983 17.6511 14.3349 18.0433 14.3333 18.5C14.3316 18.9567 14.4949 19.3492 14.8233 19.6775C15.1516 20.0058 15.5438 20.1689 15.9999 20.1667ZM13.4999 12.6667H18.4999V11C18.4999 10.3056 18.2569 9.71527 17.7708 9.22916C17.2846 8.74305 16.6944 8.5 15.9999 8.5C15.3055 8.5 14.7152 8.74305 14.2291 9.22916C13.743 9.71527 13.4999 10.3056 13.4999 11V12.6667Z" fill="white"/>
</svg>
