<svg width="100" height="110" viewBox="0 0 100 110" fill="none" xmlns="http://www.w3.org/2000/svg">
    <g clip-path="url(#clip0_2001_814)">
        <path d="M67.6356 4.24893C69.2829 4.85509 70.6724 5.9609 72.1065 6.94277C76.5755 9.87674 80.2848 13.8429 83.374 18.1752C85.6995 21.2679 87.5833 24.6861 88.9205 28.3172C90.2034 31.7877 91.3391 35.3665 91.624 39.0752C91.6802 40.7019 91.1336 42.2783 90.3953 43.7076C89.8759 44.8947 89.0697 46.0644 89.1782 47.4162C89.1685 47.9933 89.5716 48.4542 89.8604 48.919C92.779 53.0982 95.872 57.1554 98.6724 61.4121C99.6104 63.0815 100.45 65.204 99.5581 67.0612C98.9922 68.3878 97.8139 69.4781 96.3856 69.7822C95.2945 70.1502 94.0329 69.9487 93.0581 70.644C93.1317 72.9021 94.5755 75.1292 93.7674 77.3815C93.374 78.5222 91.9457 78.4989 91.2092 79.2968C91.0348 79.8061 91.4476 80.2651 91.5833 80.7377C91.9534 81.4503 91.8914 82.2618 91.8701 83.0403C91.3681 83.9215 90.8468 84.7987 90.0871 85.4901C89.3991 86.1002 89.5116 87.1266 89.7557 87.9225C90.3391 89.6887 90.9437 91.5014 90.905 93.3857C90.8759 94.2688 91.0271 95.2119 90.6278 96.0389C89.5678 98.2834 87.7073 100.191 85.3488 101.051C84.0503 101.58 82.6278 101.535 81.2519 101.605C78.1918 101.682 75.1259 101.593 72.0658 101.657C70.2267 101.659 68.4495 102.846 67.7712 104.558C66.9185 106.344 67.184 108.364 67.1414 110.273C65.7771 110.228 64.403 110.36 63.0484 110.215C62.8468 107.575 62.9476 104.849 63.8371 102.329C64.7538 99.2246 67.7887 96.7942 71.0619 96.8038C74.7402 96.7206 78.4205 96.9743 82.0949 96.7942C83.998 96.7206 85.8933 95.4947 86.4418 93.6259C87.1743 90.7461 85.0406 87.9864 85.841 85.1086C86.1666 83.9292 87.467 83.4489 87.9515 82.3702C87.8178 81.4813 86.7964 80.9119 86.9302 79.9204C86.746 78.0148 88.6569 77.0019 89.9321 75.9891C89.903 73.9769 89.06 72.0965 88.7906 70.1211C88.6898 69.3019 89.3139 68.6473 89.9437 68.2348C91.4786 67.2995 93.3197 66.9818 94.8294 66.0058C95.6918 65.1072 94.9108 63.8619 94.3391 63.037C91.6976 59.2915 89.184 55.459 86.5794 51.6884C85.6123 50.2959 84.7228 48.6847 84.8953 46.932C85.2984 45.2491 85.8003 43.5855 86.4786 41.9898C86.8662 41.0621 86.7402 40.0222 86.6259 39.0539C85.6026 32.2292 82.9631 25.6157 78.8216 20.0769C76.091 16.0952 72.4922 12.7429 68.4243 10.1556C65.3507 8.14347 61.8914 6.81495 58.405 5.7227C52.374 3.8403 45.9321 3.36196 39.684 4.23537C34.2189 5.19981 28.8468 6.91178 24.0193 9.67727C18.5755 12.5532 14.2422 17.1642 10.934 22.2905C9.43016 24.7171 7.96698 27.1959 7.00187 29.8975C5.56001 34.0322 4.70729 38.3741 4.45729 42.7431C4.52512 45.6713 4.279 48.6208 4.67435 51.5315C4.79838 53.7024 5.36233 55.8153 5.8759 57.9204C6.81776 61.72 8.73055 65.1808 10.7034 68.5292C11.6511 69.9584 12.6162 71.3722 13.5542 72.8091C16.1782 77.0252 18.1802 81.6614 19.1705 86.5378C20.1647 90.9843 20.1918 95.6341 19.2945 100.1C18.5949 103.576 17.7209 107.06 16.2054 110.281C14.9689 110.263 13.7325 110.283 12.4961 110.269C12.5949 109.055 13.1647 107.959 13.5154 106.812C14.8759 103.14 15.6317 99.2672 15.9418 95.3688C16.1259 90.8565 15.217 86.3248 13.5445 82.1417C11.9728 77.8327 9.18404 74.1357 6.74024 70.3012C3.78094 65.7502 1.73249 60.6123 0.709231 55.2827C-0.10666 50.9854 -0.0407692 46.5989 0.0425641 42.2454C0.505742 36.4065 1.80225 30.5695 4.39334 25.2884C6.12396 21.7889 8.13946 18.3998 10.7247 15.462C13.9844 11.5829 17.8992 8.23837 22.3236 5.75756C23.622 4.92481 25.0658 4.32639 26.3972 3.5866C26.3972 3.5866 34.215 -0.0368118 46.6898 -0.0368118C59.1647 -0.0368118 67.6278 4.24699 67.6278 4.24699L67.6356 4.24893Z" fill="#C58F2B"/>
        <path d="M38.9069 10.1286L47.9379 10.0996C47.9379 10.0996 50.4825 12.7644 51.7751 14.0755C52.0755 14.3253 51.9902 14.7417 52.0154 15.0844C51.9844 18.4077 51.9747 24.5371 51.9747 24.5371L49.6317 27.0934L49.6065 25.4028L50.4922 24.3318L50.467 15.3478L47.0755 11.6121L37.2034 11.5772L38.9069 10.1286Z" fill="#00498D"/>
        <path d="M57.5135 14.2788C59.0252 13.0336 61.6104 13.6165 62.3953 15.4156C63.1647 16.992 62.1356 18.9809 60.529 19.5271C59.7519 19.9144 58.8953 19.622 58.1046 19.4496C58.0581 22.4049 58.0659 25.3602 58.2054 28.3135C58.1976 28.9448 58.2926 29.704 57.7597 30.163C55.9069 31.9931 52.3701 35.8198 52.3701 35.8198L52.3411 38.0973H50.4263L50.4806 34.929C50.4806 34.929 54.5542 30.8447 56.5872 28.7977C56.4031 24.9709 56.56 21.1383 56.3934 17.3116C56.3217 16.2135 56.4787 14.9024 57.5116 14.2769L57.5135 14.2788ZM58.686 15.2103C57.9341 15.6906 57.5174 16.7771 58.0891 17.5498C58.7597 18.7234 60.7752 18.4426 61.1395 17.1508C61.7073 15.7778 59.9011 14.4144 58.686 15.2103Z" fill="#00498D"/>
        <path d="M23.4728 21.363L18.8662 21.3688L19.8236 19.9163L22.9166 19.9202C22.9166 19.9202 26.6007 16.3123 28.2383 14.8443C33.6124 14.854 38.9864 14.8462 44.3624 14.8501C44.8643 15.3265 45.3585 15.8126 45.8469 16.3065C45.8197 20.3753 45.8682 24.4519 45.8372 28.5168C43.4147 31.2533 40.5562 33.5695 37.9631 36.1394C36.0097 36.1452 34.0581 36.1239 32.1085 36.1549C31.4108 35.3647 30.8159 34.4933 30.1395 33.6857C29.7655 33.1396 29.0349 33.2519 28.4651 33.2093C23.8236 33.2015 14.5387 33.2461 14.5387 33.2461L14.4321 38.1031L13.0891 38.0954L13.1531 31.7742C13.1531 31.7742 25.0659 31.7684 30.7093 31.7297C31.4418 32.6515 32.124 33.614 32.8294 34.5552C34.1492 34.5242 35.467 34.5707 36.7829 34.5707C37.1628 34.6288 37.4244 34.3403 37.6724 34.1059C39.7984 31.9892 42.0193 29.9693 44.2054 27.9204C44.3236 24.2427 44.3469 20.538 44.1395 16.8642C38.9069 16.8487 33.6744 16.8642 28.4438 16.8061L23.4748 21.3707L23.4728 21.363Z" fill="#00498D"/>
        <path d="M64.8604 37.9579H61.5174L61.531 36.4144H64.1279L67.8197 30.8311C67.8197 30.8311 67.8081 28.3019 67.8081 27.016C65.3314 26.5957 64.093 23.195 65.7248 21.2913C66.7984 19.5735 69.467 19.5058 70.7984 20.9524C71.7945 21.8374 72.0135 23.286 71.6938 24.5274C71.3449 25.5364 70.5019 26.2413 69.6279 26.7874C69.6279 28.2612 69.6356 30.8582 69.6356 30.8582L64.8624 37.9579H64.8604ZM67.7538 21.6806C66.1841 22.2015 66.1608 24.816 67.8158 25.2285C69.1569 25.7204 70.6627 24.3589 70.2131 22.982C70.029 21.8762 68.7577 21.3359 67.7519 21.6806H67.7538Z" fill="#00498D"/>
        <path d="M33.4941 22.5888C33.9864 22.0253 34.8158 22.0137 35.3333 21.4811C36.2984 20.5806 37.9185 20.3753 38.9767 21.2274C40.5368 22.2771 40.7538 24.723 39.4166 26.038C38.3778 27.3452 36.2693 27.4711 35.0213 26.4098C34.4205 25.8404 34.2015 25.0135 34.0251 24.235C32.5949 25.4512 29.9437 28.3987 29.9437 28.3987H27.7131L14.7577 28.358L15.7674 26.7681L29.498 26.6771L33.4941 22.5908V22.5888ZM36.8778 22.3274C35.8468 22.5753 35.1375 23.9813 35.8255 24.8837C36.4399 25.9179 38.0813 25.794 38.6511 24.7656C39.4961 23.6501 38.186 21.9052 36.8778 22.3255V22.3274Z" fill="#00498D"/>
        <path d="M75.7364 29.6227L77.5368 27.81L77.6317 32.5992L76.4321 35.3396L74.7209 37.9579H72.2984L74.1124 35.2059L75.6686 32.7406L75.7364 29.6227Z" fill="#00498D"/>
        <path d="M16.1221 68.4306H20.9864C20.9864 68.4306 26.6008 75.4954 29.6647 78.7102C29.6821 82.2154 29.469 85.7227 29.4477 89.2279C29.4011 92.9792 29.5116 96.7323 29.3488 100.482C29.2345 103.662 29.219 110.031 29.219 110.031L27.5891 109.913C27.5891 109.913 27.657 103.962 27.6511 100.987C27.779 94.0463 27.6996 87.1035 27.7325 80.1626C27.8469 79.0471 26.7694 78.379 26.1356 77.6237C23.9341 75.4024 19.8798 70.6364 19.8798 70.6364L16.2325 69.4047L16.1221 68.4306Z" fill="#00498D"/>
        <path d="M55.496 74.4031C56.186 74.6297 56.9108 74.9163 57.3449 75.5438C58.31 76.7116 57.81 78.625 56.5852 79.4093C56.0387 79.8024 55.3294 79.6901 54.6995 79.7598C53.715 81.6887 51.7518 82.8778 50.6298 84.6905C50.3875 87.9053 50.5387 91.1452 50.4922 94.3697V110.273H48.7615C48.7615 110.273 48.8197 98.2081 48.779 92.1736C48.7984 89.3965 48.7383 86.6193 48.8081 83.8442C50.0987 82.2213 51.8875 81.0148 53.1414 79.3415C53.2363 78.5959 52.3856 78.0324 52.4437 77.2577C52.3332 76.0957 53.1491 75.1158 54.0639 74.5155L49.5542 68.4345H51.0406L55.4941 74.4031H55.496ZM54.7189 75.5903C53.6298 75.8866 53.2383 77.5037 54.153 78.1989C54.9863 78.9774 56.6046 78.4313 56.6414 77.248C56.8177 76.2061 55.7383 75.2146 54.7189 75.5922V75.5903Z" fill="#00498D"/>
        <path d="M35.2034 75.8808L27.9515 68.4325H29.9476C29.9476 68.4325 34.3817 72.7977 36.6084 74.9725C36.8061 75.1875 37.1201 75.3966 37.0561 75.7375C36.9476 81.8707 37.1414 88.0137 36.9476 94.145C37.8856 94.7183 38.8895 95.5878 38.7751 96.8079C38.9088 98.0221 38.0988 99.1512 36.965 99.5366C36.8817 103.022 36.9495 110.273 36.9495 110.273H35.0891C35.0891 110.273 35.153 103.021 35.0116 99.5424C34.2596 98.82 33.4612 97.9505 33.5736 96.8195C33.4592 95.7718 34.4108 94.7163 35.155 94.1063L35.2034 75.8827V75.8808ZM35.8778 95.4426C34.9747 95.7776 34.8274 96.9008 35.1588 97.6968C35.8023 98.7813 37.8197 98.3959 37.8274 97.0558C38.0619 96.0061 36.8623 94.9952 35.8778 95.4426Z" fill="#00498D"/>
        <path d="M38.5522 68.4383L40.1143 68.4325L44.6375 74.5329L44.6046 90.936L44.4631 110.24L42.8274 110.267C42.8274 110.267 43.122 95.5956 43.0503 88.2577C42.998 83.8441 43.1782 79.4325 43.153 75.0151L38.5522 68.4364V68.4383Z" fill="#00498D"/>
        <path d="M63.6375 70.7042C63.6841 69.6603 64.5872 68.5584 65.6492 68.4732C66.9437 68.3337 67.6279 68.5448 68.3934 69.4221C68.8236 70.1755 68.7771 71.0256 68.6802 71.963C68.5794 72.8209 67.3759 73.4542 66.8779 73.6362C66.8391 75.2417 66.872 77.0582 66.8604 78.6656C66.8934 79.539 66.3178 80.2633 65.7693 80.883C64.1007 82.7364 62.3275 84.4948 60.6414 86.3327C59.7131 87.3668 58.5484 88.1918 57.7306 89.3112C57.56 96.2249 57.622 110.271 57.622 110.271H55.8914C55.8914 110.271 55.9437 95.3205 55.9302 88.0098C56.0329 87.7174 56.341 87.5702 56.5503 87.363C59.4922 84.826 62.155 81.9888 64.8061 79.1536C64.8507 77.3003 65.0251 75.4547 65.0426 73.6013C64.2654 72.8422 63.5096 71.8506 63.6375 70.7022V70.7042ZM65.6821 69.4957C64.8624 69.9431 64.529 71.0992 65.2093 71.8216C65.6996 72.7337 67.1802 72.5982 67.4592 71.5853C68.0813 70.4931 66.8914 68.9535 65.6821 69.4957Z" fill="#00498D"/>
        <path d="M11.1302 69.382V41.8043H21.342C24.419 41.8043 26.7845 42.4133 28.4383 43.6313C30.0922 44.8493 30.9192 46.5865 30.9192 48.843C30.9192 50.2276 30.4897 51.4456 29.6307 52.4969C28.7717 53.5482 27.6755 54.279 26.3421 54.6893V54.7662C28.0217 55.0098 29.355 55.7214 30.3422 56.9009C31.3423 58.0676 31.8423 59.4843 31.8423 61.151C31.8423 63.6767 30.9384 65.6832 29.1307 67.1704C27.3229 68.6448 24.8549 69.382 21.7266 69.382H11.1302ZM17.3419 46.5352V53.0931H20.2458C21.5279 53.0931 22.5343 52.7918 23.2651 52.1892C24.0087 51.5866 24.3805 50.7084 24.3805 49.5545C24.3805 48.5801 24.06 47.8365 23.419 47.3237C22.7779 46.798 21.8164 46.5352 20.5343 46.5352H17.3419ZM17.3419 57.7086V64.6511H20.7074C22.1433 64.6511 23.2651 64.3306 24.0728 63.6895C24.8934 63.0485 25.3036 62.1767 25.3036 61.0741C25.3036 60.0356 24.8998 59.215 24.0921 58.6125C23.2972 58.0099 22.1818 57.7086 20.7458 57.7086H17.3419ZM52.5544 69.382H36.0155V41.8043H51.9197V46.9583H42.2272V52.9585H51.2466V58.074H42.2272V64.228H52.5544V69.382ZM68.4779 69.8628C64.5034 69.8628 61.2405 68.5807 58.6892 66.0165C56.1378 63.4395 54.8621 60.0869 54.8621 55.9585C54.8621 51.5995 56.157 48.0737 58.7468 45.3813C61.3367 42.689 64.7278 41.3428 68.9202 41.3428C72.8818 41.3428 76.1063 42.6313 78.5935 45.2083C81.0936 47.7853 82.3436 51.1828 82.3436 55.4008C82.3436 59.7343 81.0487 63.228 78.4589 65.8819C75.8819 68.5358 72.5549 69.8628 68.4779 69.8628ZM68.5933 64.4203C70.76 64.4203 72.5036 63.6575 73.8242 62.1318C75.1447 60.5933 75.805 58.465 75.805 55.747C75.805 52.9136 75.1639 50.7084 73.8819 49.1314C72.5998 47.5545 70.8882 46.766 68.7471 46.766C66.5419 46.766 64.7662 47.5801 63.42 49.2084C62.0739 50.8238 61.4008 52.9649 61.4008 55.6316C61.4008 58.3368 62.0739 60.4779 63.42 62.0549C64.7662 63.6318 66.4906 64.4203 68.5933 64.4203Z" fill="#C58F2B"/>
    </g>
    <defs>
        <clipPath id="clip0_2001_814">
            <rect width="100" height="110" fill="white"/>
        </clipPath>
    </defs>
</svg>
