<svg width="32" height="32" viewBox="0 0 32 32" fill="none" xmlns="http://www.w3.org/2000/svg">
    <circle cx="16" cy="16" r="16" fill="#CBA64C"/>
    <path d="M18.581 13.402C20.194 14.718 21 15.375 21 16.5C21 17.625 20.194 18.283 18.581 19.598C18.1621 19.9431 17.7312 20.2734 17.289 20.588C16.933 20.838 16.53 21.096 16.113 21.35C14.504 22.328 13.7 22.817 12.979 22.276C12.257 21.734 12.192 20.601 12.061 18.333C12.0237 17.7227 12.0033 17.1115 12 16.5C12 15.937 12.023 15.308 12.06 14.667C12.192 12.4 12.257 11.266 12.979 10.724C13.7 10.183 14.504 10.672 16.113 11.65C16.53 11.904 16.933 12.162 17.289 12.412C17.7312 12.7267 18.1621 13.0569 18.581 13.402Z" stroke="white" stroke-width="1.5" stroke-linecap="round" stroke-linejoin="round"/>
</svg>
