

<svg width="27" height="27" viewBox="0 0 27 27" fill="none" xmlns="http://www.w3.org/2000/svg">
    <path d="M10.125 3.375V1.125L16.875 1.125V3.375L10.125 3.375ZM12.375 15.75H14.625V9H12.375V15.75ZM13.5 24.75C12.1125 24.75 10.8045 24.483 9.576 23.949C8.3475 23.415 7.27425 22.6882 6.35625 21.7688C5.43825 20.8493 4.71188 19.7756 4.17713 18.5479C3.64238 17.3201 3.375 16.0125 3.375 14.625C3.375 13.2375 3.64238 11.9295 4.17713 10.701C4.71188 9.4725 5.43825 8.39925 6.35625 7.48125C7.27425 6.56325 8.34787 5.83687 9.57712 5.30212C10.8064 4.76737 12.114 4.5 13.5 4.5C14.6625 4.5 15.7781 4.6875 16.8469 5.0625C17.9156 5.4375 18.9187 5.98125 19.8562 6.69375L21.4312 5.11875L23.0063 6.69375L21.4312 8.26875C22.1437 9.20625 22.6875 10.2094 23.0625 11.2781C23.4375 12.3469 23.625 13.4625 23.625 14.625C23.625 16.0125 23.3576 17.3205 22.8229 18.549C22.2881 19.7775 21.5618 20.8507 20.6438 21.7688C19.7257 22.6868 18.6521 23.4135 17.4229 23.949C16.1936 24.4845 14.886 24.7515 13.5 24.75ZM13.5 22.5C15.675 22.5 17.5313 21.7313 19.0688 20.1938C20.6063 18.6562 21.375 16.8 21.375 14.625C21.375 12.45 20.6063 10.5938 19.0688 9.05625C17.5313 7.51875 15.675 6.75 13.5 6.75C11.325 6.75 9.46875 7.51875 7.93125 9.05625C6.39375 10.5938 5.625 12.45 5.625 14.625C5.625 16.8 6.39375 18.6562 7.93125 20.1938C9.46875 21.7313 11.325 22.5 13.5 22.5Z" fill="#CBA64C"/>
</svg>
